<?xml version="1.0" encoding="utf-8"?>
<!-- Svg Vector Icons : http://www.onlinewebfonts.com/icon -->
<!DOCTYPE svg PUBLIC "-//W3C//DTD SVG 1.1//EN" "http://www.w3.org/Graphics/SVG/1.1/DTD/svg11.dtd">
<svg version="1.1" xmlns="http://www.w3.org/2000/svg" xmlns:xlink="http://www.w3.org/1999/xlink" x="0px" y="0px" viewBox="0 0 1000 1000" enable-background="new 0 0 1000 1000" xml:space="preserve">
<metadata> Svg Vector Icons : http://www.onlinewebfonts.com/icon </metadata>
<g><g><g><path d="M630.8,227.1H612c-6,0-11.9,2.5-16.2,6.8c-4.1,4.1-6.4,9.5-6.3,14.3l-37,273.9c-1.4,10.2,3.5,22.3,11.7,28.7c0,0,15.2,11.4,22.9,16.8l1.9,0.8l0.4,203.4c0,12.4,10.1,22.6,22.6,22.6h18.8c12.5,0,22.6-10.1,22.6-22.6V249.7C653.4,237.2,643.3,227.1,630.8,227.1z M578,532.9c-1.7-1.4-3.4-5.6-3.2-7.7l35.7-264.2c0.8-6.2,5.7-11.2,10.9-11.2c5.2,0,9.4,5.1,9.4,11.3v369.5h-19.1l-0.1-67.3c0-3.2-1.8-6.8-4.4-8.7L578,532.9z M621.4,771.7c-5.2,0-9.4-5.1-9.4-11.3l-0.2-94.1h19v94.1C630.8,766.7,626.6,771.7,621.4,771.7z"/><path d="M463.4,249.7c-12.3,0-22.3,10.1-22.3,22.6v99.2c0,6.3-3.5,11.3-7.8,11.3c-4.3,0-7.8-5-7.8-11.3c0-28.3,0-100.1,0-100.1c0-13-13.2-21.7-26.2-21.7c-11.9,0-25.5,10.1-25.5,23.1v98.9c0,6.3-3.5,11.3-7.8,11.3c-4.3,0-7.7-5-7.7-11.3v-99.4c0-12.5-9.8-22.6-21.9-22.6c-7,0-33.2,5.7-33.2,22.6v123.9c0,6.3,1.4,19.1,6.5,27.4c7.6,12.3,31.5,30.3,67.2,36.6c-3.9,4.1-6.4,9.6-6.4,15.6v295.9c0,12.4,10.1,22.6,22.6,22.6h18.8c12.5,0,22.6-10.1,22.6-22.6V666.3h0v-35.8h0V475.9c0-6.1-2.4-11.6-6.4-15.7c32-5.8,55.8-21.7,63.5-36.9c4.8-9.5,5.1-24.2,5.1-27V272.3C497,255.4,470.5,249.7,463.4,249.7z M412.2,760.4c0,6.3-4.2,11.3-9.4,11.3c-5.2,0-9.4-5.1-9.4-11.3v-94.1h18.9V760.4z M393.4,630.5V487.2c0-6.3,4.2-11.3,9.4-11.3c5.2,0,9.4,5.1,9.4,11.3l0,143.4H393.4z M474.4,396.2c0,6.4-1.1,14-2.6,16.8c-4.8,9.4-30,27-69,27c-39.8,0-67.6-18.4-73.7-28.2c-1.6-2.7-3.2-10.1-3.2-15.6V275.6c2.9-1.6,8.2-3.3,9.9-3.3v110.5c0,12.5,10.1,22.8,22.2,22.8h15.7c12.5,0,22.6-9.8,22.6-22.3V273.9c0.7-0.7,2.4-1.6,3.8-1.6c0.9,0,2.1,0.4,2.8,0.8v108.8c0,16.3,10,23.5,19.8,23.5h18.4c12.5,0,22.6-10.1,22.6-22.6l-0.4-110.5c2.3,0,8,1.8,10.9,3.3V396.2z"/><path d="M500,10C229.8,10,10,229.8,10,500s219.8,490,490,490s490-219.8,490-490S770.2,10,500,10z M500,954.3C249.5,954.3,45.8,750.5,45.8,500S249.5,45.8,500,45.8S954.2,249.6,954.2,500S750.5,954.3,500,954.3z"/><path d="M500,105.2c-217.7,0-394.8,177.1-394.8,394.8c0,217.7,177.1,394.8,394.8,394.8c217.7,0,394.8-177.1,394.8-394.8C894.8,282.3,717.7,105.2,500,105.2z M500,876.9c-207.8,0-376.9-169.1-376.9-376.9c0-207.8,169.1-376.9,376.9-376.9c207.8,0,376.9,169.1,376.9,376.9C876.9,707.9,707.8,876.9,500,876.9z"/></g></g><g></g><g></g><g></g><g></g><g></g><g></g><g></g><g></g><g></g><g></g><g></g><g></g><g></g><g></g><g></g></g>
</svg>